%TF.GenerationSoftware,KiCad,Pcbnew,8.0.8*%
%TF.CreationDate,2025-04-03T17:01:25+02:00*%
%TF.ProjectId,nrf24small,6e726632-3473-46d6-916c-6c2e6b696361,rev?*%
%TF.SameCoordinates,Original*%
%TF.FileFunction,Copper,L2,Bot*%
%TF.FilePolarity,Positive*%
%FSLAX46Y46*%
G04 Gerber Fmt 4.6, Leading zero omitted, Abs format (unit mm)*
G04 Created by KiCad (PCBNEW 8.0.8) date 2025-04-03 17:01:25*
%MOMM*%
%LPD*%
G01*
G04 APERTURE LIST*
G04 Aperture macros list*
%AMRoundRect*
0 Rectangle with rounded corners*
0 $1 Rounding radius*
0 $2 $3 $4 $5 $6 $7 $8 $9 X,Y pos of 4 corners*
0 Add a 4 corners polygon primitive as box body*
4,1,4,$2,$3,$4,$5,$6,$7,$8,$9,$2,$3,0*
0 Add four circle primitives for the rounded corners*
1,1,$1+$1,$2,$3*
1,1,$1+$1,$4,$5*
1,1,$1+$1,$6,$7*
1,1,$1+$1,$8,$9*
0 Add four rect primitives between the rounded corners*
20,1,$1+$1,$2,$3,$4,$5,0*
20,1,$1+$1,$4,$5,$6,$7,0*
20,1,$1+$1,$6,$7,$8,$9,0*
20,1,$1+$1,$8,$9,$2,$3,0*%
G04 Aperture macros list end*
%TA.AperFunction,ComponentPad*%
%ADD10R,1.700000X1.700000*%
%TD*%
%TA.AperFunction,ComponentPad*%
%ADD11O,1.700000X1.700000*%
%TD*%
%TA.AperFunction,SMDPad,CuDef*%
%ADD12RoundRect,0.250000X1.600000X-0.425000X1.600000X0.425000X-1.600000X0.425000X-1.600000X-0.425000X0*%
%TD*%
%TA.AperFunction,ViaPad*%
%ADD13C,0.600000*%
%TD*%
%TA.AperFunction,Conductor*%
%ADD14C,0.200000*%
%TD*%
G04 APERTURE END LIST*
D10*
%TO.P,J2,1,Pin_1*%
%TO.N,Net-(J2-Pin_1)*%
X17000000Y-18460000D03*
D11*
%TO.P,J2,2,Pin_2*%
%TO.N,Net-(J2-Pin_2)*%
X17000000Y-21000000D03*
%TO.P,J2,3,Pin_3*%
%TO.N,Net-(J2-Pin_3)*%
X17000000Y-23540000D03*
%TO.P,J2,4,Pin_4*%
%TO.N,Net-(J2-Pin_4)*%
X17000000Y-26080000D03*
%TO.P,J2,5,Pin_5*%
%TO.N,Net-(J2-Pin_5)*%
X17000000Y-28620000D03*
%TO.P,J2,6,Pin_6*%
%TO.N,Net-(J2-Pin_6)*%
X17000000Y-31160000D03*
%TO.P,J2,7,Pin_7*%
%TO.N,+3.3V*%
X17000000Y-33700000D03*
%TO.P,J2,8,Pin_8*%
%TO.N,GND*%
X17000000Y-36240000D03*
%TD*%
D12*
%TO.P,J1,2,Ext*%
%TO.N,GND*%
X39635366Y-17823667D03*
X39635366Y-23473667D03*
%TD*%
D13*
%TO.N,+3.3V*%
X21996278Y-18118475D03*
X19328733Y-36005044D03*
X23914865Y-37200000D03*
X19842995Y-24398105D03*
X24376515Y-18085719D03*
X34000000Y-18000000D03*
%TO.N,GND*%
X24917978Y-20568629D03*
X21000000Y-24361538D03*
X39500000Y-25500000D03*
%TO.N,Net-(J2-Pin_1)*%
X28346311Y-31118475D03*
%TD*%
D14*
%TO.N,GND*%
X21000000Y-24361538D02*
X21000000Y-24801303D01*
X39635366Y-17823667D02*
X39635366Y-23473667D01*
X27823016Y-23473667D02*
X39635366Y-23473667D01*
X28594840Y-31718475D02*
X28946311Y-31367004D01*
X27917172Y-31718475D02*
X28594840Y-31718475D01*
X39635366Y-25364634D02*
X39500000Y-25500000D01*
X21000000Y-24801303D02*
X27917172Y-31718475D01*
X39635366Y-23473667D02*
X39635366Y-25364634D01*
X28946311Y-31367004D02*
X28946311Y-24596962D01*
X28946311Y-24596962D02*
X27823016Y-23473667D01*
X24917978Y-20568629D02*
X27823016Y-23473667D01*
%TO.N,Net-(J2-Pin_1)*%
X28346311Y-31118475D02*
X28346311Y-29806311D01*
X28346311Y-29806311D02*
X17000000Y-18460000D01*
%TD*%
%TA.AperFunction,Conductor*%
%TO.N,+3.3V*%
G36*
X18549473Y-20860911D02*
G01*
X18564431Y-20873666D01*
X21039680Y-23348915D01*
X21073165Y-23410238D01*
X21068181Y-23479930D01*
X21026309Y-23535863D01*
X20965883Y-23559816D01*
X20820749Y-23576168D01*
X20820745Y-23576169D01*
X20650476Y-23635749D01*
X20497737Y-23731722D01*
X20370184Y-23859275D01*
X20274211Y-24012014D01*
X20214631Y-24182283D01*
X20214630Y-24182288D01*
X20194435Y-24361534D01*
X20194435Y-24361541D01*
X20214630Y-24540787D01*
X20214631Y-24540792D01*
X20274211Y-24711061D01*
X20370184Y-24863800D01*
X20380672Y-24874288D01*
X20412765Y-24929874D01*
X20440420Y-25033079D01*
X20440424Y-25033090D01*
X20445284Y-25041507D01*
X20445285Y-25041509D01*
X20519477Y-25170015D01*
X20519481Y-25170020D01*
X20638349Y-25288888D01*
X20638355Y-25288893D01*
X27432311Y-32082849D01*
X27432321Y-32082860D01*
X27436651Y-32087190D01*
X27436652Y-32087191D01*
X27548456Y-32198995D01*
X27548458Y-32198996D01*
X27548462Y-32198999D01*
X27685381Y-32278048D01*
X27685388Y-32278052D01*
X27797191Y-32308009D01*
X27838114Y-32318975D01*
X27838115Y-32318975D01*
X28508171Y-32318975D01*
X28508187Y-32318976D01*
X28515783Y-32318976D01*
X28673894Y-32318976D01*
X28673897Y-32318976D01*
X28826625Y-32278052D01*
X28876744Y-32249114D01*
X28963556Y-32198995D01*
X29075360Y-32087191D01*
X29075360Y-32087189D01*
X29085568Y-32076982D01*
X29085570Y-32076979D01*
X29315024Y-31847525D01*
X29315027Y-31847524D01*
X29426831Y-31735720D01*
X29476950Y-31648908D01*
X29505888Y-31598789D01*
X29546811Y-31446061D01*
X29546811Y-31287947D01*
X29546811Y-24686021D01*
X29546812Y-24686008D01*
X29546812Y-24517907D01*
X29546812Y-24517905D01*
X29505888Y-24365177D01*
X29458143Y-24282481D01*
X29458141Y-24282477D01*
X29445259Y-24260163D01*
X29428789Y-24192263D01*
X29451643Y-24126237D01*
X29506566Y-24083048D01*
X29552648Y-24074167D01*
X37213349Y-24074167D01*
X37280388Y-24093852D01*
X37326143Y-24146656D01*
X37331052Y-24159156D01*
X37350552Y-24218001D01*
X37442654Y-24367323D01*
X37566710Y-24491379D01*
X37716032Y-24583481D01*
X37882569Y-24638666D01*
X37985357Y-24649167D01*
X38910866Y-24649166D01*
X38977905Y-24668850D01*
X39023660Y-24721654D01*
X39034866Y-24773166D01*
X39034866Y-24781693D01*
X39015181Y-24848732D01*
X38998548Y-24869374D01*
X38870183Y-24997739D01*
X38774211Y-25150476D01*
X38714631Y-25320745D01*
X38714630Y-25320750D01*
X38694435Y-25499996D01*
X38694435Y-25500003D01*
X38714630Y-25679249D01*
X38714631Y-25679254D01*
X38774211Y-25849523D01*
X38841285Y-25956270D01*
X38870184Y-26002262D01*
X38997738Y-26129816D01*
X39150478Y-26225789D01*
X39274597Y-26269220D01*
X39320745Y-26285368D01*
X39320750Y-26285369D01*
X39499996Y-26305565D01*
X39500000Y-26305565D01*
X39500004Y-26305565D01*
X39679249Y-26285369D01*
X39679252Y-26285368D01*
X39679255Y-26285368D01*
X39849522Y-26225789D01*
X40002262Y-26129816D01*
X40129816Y-26002262D01*
X40225789Y-25849522D01*
X40285368Y-25679255D01*
X40289275Y-25644583D01*
X40305565Y-25500003D01*
X40305565Y-25499996D01*
X40285369Y-25320750D01*
X40285368Y-25320745D01*
X40271749Y-25281823D01*
X40242823Y-25199160D01*
X40235866Y-25158206D01*
X40235866Y-24773166D01*
X40255551Y-24706127D01*
X40308355Y-24660372D01*
X40359866Y-24649166D01*
X41285368Y-24649166D01*
X41285374Y-24649166D01*
X41362900Y-24641246D01*
X41431590Y-24654015D01*
X41482475Y-24701896D01*
X41499500Y-24764604D01*
X41499500Y-25708702D01*
X41479815Y-25775741D01*
X41455184Y-25803710D01*
X26352465Y-38470508D01*
X26288450Y-38498506D01*
X26272781Y-38499500D01*
X16258676Y-38499500D01*
X16191637Y-38479815D01*
X16170995Y-38463181D01*
X15536819Y-37829005D01*
X15503334Y-37767682D01*
X15500500Y-37741324D01*
X15500500Y-36779196D01*
X15520185Y-36712157D01*
X15572989Y-36666402D01*
X15642147Y-36656458D01*
X15705703Y-36685483D01*
X15736882Y-36726791D01*
X15825965Y-36917830D01*
X15825967Y-36917834D01*
X15934281Y-37072521D01*
X15961505Y-37111401D01*
X16128599Y-37278495D01*
X16225384Y-37346265D01*
X16322165Y-37414032D01*
X16322167Y-37414033D01*
X16322170Y-37414035D01*
X16536337Y-37513903D01*
X16764592Y-37575063D01*
X16952918Y-37591539D01*
X16999999Y-37595659D01*
X17000000Y-37595659D01*
X17000001Y-37595659D01*
X17039234Y-37592226D01*
X17235408Y-37575063D01*
X17463663Y-37513903D01*
X17677830Y-37414035D01*
X17871401Y-37278495D01*
X18038495Y-37111401D01*
X18174035Y-36917830D01*
X18273903Y-36703663D01*
X18335063Y-36475408D01*
X18355659Y-36240000D01*
X18335063Y-36004592D01*
X18286888Y-35824799D01*
X18273905Y-35776344D01*
X18273904Y-35776343D01*
X18273903Y-35776337D01*
X18174035Y-35562171D01*
X18038495Y-35368599D01*
X18038494Y-35368597D01*
X17871402Y-35201506D01*
X17871395Y-35201501D01*
X17677834Y-35065967D01*
X17677830Y-35065965D01*
X17677828Y-35065964D01*
X17463663Y-34966097D01*
X17463659Y-34966096D01*
X17463655Y-34966094D01*
X17235413Y-34904938D01*
X17235403Y-34904936D01*
X17000001Y-34884341D01*
X16999999Y-34884341D01*
X16764596Y-34904936D01*
X16764586Y-34904938D01*
X16536344Y-34966094D01*
X16536335Y-34966098D01*
X16322171Y-35065964D01*
X16322169Y-35065965D01*
X16128597Y-35201505D01*
X15961505Y-35368597D01*
X15825965Y-35562169D01*
X15825964Y-35562171D01*
X15736882Y-35753208D01*
X15690709Y-35805647D01*
X15623516Y-35824799D01*
X15556635Y-35804583D01*
X15511300Y-35751418D01*
X15500500Y-35700803D01*
X15500500Y-31699196D01*
X15520185Y-31632157D01*
X15572989Y-31586402D01*
X15642147Y-31576458D01*
X15705703Y-31605483D01*
X15736882Y-31646791D01*
X15825965Y-31837830D01*
X15825967Y-31837834D01*
X15839903Y-31857736D01*
X15961505Y-32031401D01*
X16128599Y-32198495D01*
X16200895Y-32249117D01*
X16322165Y-32334032D01*
X16322167Y-32334033D01*
X16322170Y-32334035D01*
X16536337Y-32433903D01*
X16764592Y-32495063D01*
X16952918Y-32511539D01*
X16999999Y-32515659D01*
X17000000Y-32515659D01*
X17000001Y-32515659D01*
X17039234Y-32512226D01*
X17235408Y-32495063D01*
X17463663Y-32433903D01*
X17677830Y-32334035D01*
X17871401Y-32198495D01*
X18038495Y-32031401D01*
X18174035Y-31837830D01*
X18273903Y-31623663D01*
X18335063Y-31395408D01*
X18355659Y-31160000D01*
X18335063Y-30924592D01*
X18286888Y-30744799D01*
X18273905Y-30696344D01*
X18273904Y-30696343D01*
X18273903Y-30696337D01*
X18174035Y-30482171D01*
X18162402Y-30465556D01*
X18038494Y-30288597D01*
X17871402Y-30121506D01*
X17871396Y-30121501D01*
X17685842Y-29991575D01*
X17642217Y-29936998D01*
X17635023Y-29867500D01*
X17666546Y-29805145D01*
X17685842Y-29788425D01*
X17708026Y-29772891D01*
X17871401Y-29658495D01*
X18038495Y-29491401D01*
X18174035Y-29297830D01*
X18273903Y-29083663D01*
X18335063Y-28855408D01*
X18355659Y-28620000D01*
X18335063Y-28384592D01*
X18286888Y-28204799D01*
X18273905Y-28156344D01*
X18273904Y-28156343D01*
X18273903Y-28156337D01*
X18174035Y-27942171D01*
X18038495Y-27748599D01*
X18038494Y-27748597D01*
X17871402Y-27581506D01*
X17871396Y-27581501D01*
X17685842Y-27451575D01*
X17642217Y-27396998D01*
X17635023Y-27327500D01*
X17666546Y-27265145D01*
X17685842Y-27248425D01*
X17708026Y-27232891D01*
X17871401Y-27118495D01*
X18038495Y-26951401D01*
X18174035Y-26757830D01*
X18273903Y-26543663D01*
X18335063Y-26315408D01*
X18355659Y-26080000D01*
X18335063Y-25844592D01*
X18286888Y-25664799D01*
X18273905Y-25616344D01*
X18273904Y-25616343D01*
X18273903Y-25616337D01*
X18174035Y-25402171D01*
X18117021Y-25320745D01*
X18038494Y-25208597D01*
X17871402Y-25041506D01*
X17871396Y-25041501D01*
X17685842Y-24911575D01*
X17642217Y-24856998D01*
X17635023Y-24787500D01*
X17666546Y-24725145D01*
X17685842Y-24708425D01*
X17742361Y-24668850D01*
X17871401Y-24578495D01*
X18038495Y-24411401D01*
X18174035Y-24217830D01*
X18273903Y-24003663D01*
X18335063Y-23775408D01*
X18355659Y-23540000D01*
X18335063Y-23304592D01*
X18286888Y-23124799D01*
X18273905Y-23076344D01*
X18273904Y-23076343D01*
X18273903Y-23076337D01*
X18174035Y-22862171D01*
X18162444Y-22845616D01*
X18038494Y-22668597D01*
X17871402Y-22501506D01*
X17871396Y-22501501D01*
X17685842Y-22371575D01*
X17642217Y-22316998D01*
X17635023Y-22247500D01*
X17666546Y-22185145D01*
X17685842Y-22168425D01*
X17708026Y-22152891D01*
X17871401Y-22038495D01*
X18038495Y-21871401D01*
X18174035Y-21677830D01*
X18273903Y-21463663D01*
X18335063Y-21235408D01*
X18355659Y-21000000D01*
X18353222Y-20972154D01*
X18366987Y-20903657D01*
X18415601Y-20853473D01*
X18483629Y-20837538D01*
X18549473Y-20860911D01*
G37*
%TD.AperFunction*%
%TA.AperFunction,Conductor*%
G36*
X40808363Y-15020185D02*
G01*
X40829005Y-15036819D01*
X41463181Y-15670995D01*
X41496666Y-15732318D01*
X41499500Y-15758676D01*
X41499500Y-16532728D01*
X41479815Y-16599767D01*
X41427011Y-16645522D01*
X41362899Y-16656086D01*
X41285378Y-16648167D01*
X37985364Y-16648167D01*
X37985347Y-16648168D01*
X37882569Y-16658667D01*
X37882566Y-16658668D01*
X37716034Y-16713852D01*
X37716029Y-16713854D01*
X37566708Y-16805956D01*
X37442655Y-16930009D01*
X37350553Y-17079330D01*
X37350551Y-17079335D01*
X37340555Y-17109501D01*
X37295367Y-17245870D01*
X37295367Y-17245871D01*
X37295366Y-17245871D01*
X37284866Y-17348650D01*
X37284866Y-18298668D01*
X37284867Y-18298686D01*
X37295366Y-18401463D01*
X37295367Y-18401466D01*
X37350551Y-18567998D01*
X37350552Y-18568001D01*
X37442654Y-18717323D01*
X37566710Y-18841379D01*
X37716032Y-18933481D01*
X37882569Y-18988666D01*
X37985357Y-18999167D01*
X38910866Y-18999166D01*
X38977905Y-19018850D01*
X39023660Y-19071654D01*
X39034866Y-19123166D01*
X39034866Y-22174167D01*
X39015181Y-22241206D01*
X38962377Y-22286961D01*
X38910866Y-22298167D01*
X37985364Y-22298167D01*
X37985346Y-22298168D01*
X37882569Y-22308667D01*
X37882566Y-22308668D01*
X37716034Y-22363852D01*
X37716029Y-22363854D01*
X37566708Y-22455956D01*
X37442655Y-22580009D01*
X37350553Y-22729330D01*
X37350552Y-22729333D01*
X37331055Y-22788172D01*
X37291282Y-22845616D01*
X37226766Y-22872439D01*
X37213349Y-22873167D01*
X28123113Y-22873167D01*
X28056074Y-22853482D01*
X28035432Y-22836848D01*
X25748678Y-20550094D01*
X25715193Y-20488771D01*
X25713141Y-20476315D01*
X25703346Y-20389374D01*
X25643767Y-20219107D01*
X25547794Y-20066367D01*
X25420240Y-19938813D01*
X25374615Y-19910145D01*
X25267501Y-19842840D01*
X25097232Y-19783260D01*
X25097227Y-19783259D01*
X24917982Y-19763064D01*
X24917974Y-19763064D01*
X24738728Y-19783259D01*
X24738723Y-19783260D01*
X24568454Y-19842840D01*
X24415715Y-19938813D01*
X24288162Y-20066366D01*
X24192189Y-20219105D01*
X24132609Y-20389374D01*
X24132608Y-20389379D01*
X24112413Y-20568625D01*
X24112413Y-20568632D01*
X24132608Y-20747878D01*
X24132609Y-20747883D01*
X24192189Y-20918152D01*
X24243618Y-21000000D01*
X24288162Y-21070891D01*
X24415716Y-21198445D01*
X24568456Y-21294418D01*
X24738723Y-21353997D01*
X24825647Y-21363790D01*
X24890058Y-21390855D01*
X24899443Y-21399329D01*
X27338155Y-23838041D01*
X27338165Y-23838052D01*
X27342495Y-23842382D01*
X27342496Y-23842383D01*
X27454300Y-23954187D01*
X27454301Y-23954187D01*
X27461368Y-23961254D01*
X27461367Y-23961254D01*
X27461371Y-23961257D01*
X28309492Y-24809378D01*
X28342977Y-24870701D01*
X28345811Y-24897059D01*
X28345811Y-28657214D01*
X28326126Y-28724253D01*
X28273322Y-28770008D01*
X28204164Y-28779952D01*
X28140608Y-28750927D01*
X28134130Y-28744895D01*
X18386818Y-18997583D01*
X18353333Y-18936260D01*
X18350499Y-18909902D01*
X18350499Y-17562129D01*
X18350498Y-17562123D01*
X18344091Y-17502516D01*
X18293797Y-17367671D01*
X18293793Y-17367664D01*
X18207547Y-17252455D01*
X18207544Y-17252452D01*
X18092335Y-17166206D01*
X18092328Y-17166202D01*
X17957482Y-17115908D01*
X17957483Y-17115908D01*
X17897883Y-17109501D01*
X17897881Y-17109500D01*
X17897873Y-17109500D01*
X17897864Y-17109500D01*
X16102129Y-17109500D01*
X16102123Y-17109501D01*
X16042516Y-17115908D01*
X15907671Y-17166202D01*
X15907664Y-17166206D01*
X15792455Y-17252452D01*
X15792452Y-17252455D01*
X15723766Y-17344208D01*
X15667832Y-17386079D01*
X15598141Y-17391063D01*
X15536818Y-17357577D01*
X15503334Y-17296254D01*
X15500500Y-17269897D01*
X15500500Y-15758676D01*
X15520185Y-15691637D01*
X15536819Y-15670995D01*
X16170995Y-15036819D01*
X16232318Y-15003334D01*
X16258676Y-15000500D01*
X40741324Y-15000500D01*
X40808363Y-15020185D01*
G37*
%TD.AperFunction*%
%TD*%
M02*
