%TF.GenerationSoftware,KiCad,Pcbnew,8.0.8*%
%TF.CreationDate,2025-04-03T17:01:25+02:00*%
%TF.ProjectId,nrf24small,6e726632-3473-46d6-916c-6c2e6b696361,rev?*%
%TF.SameCoordinates,Original*%
%TF.FileFunction,Legend,Top*%
%TF.FilePolarity,Positive*%
%FSLAX46Y46*%
G04 Gerber Fmt 4.6, Leading zero omitted, Abs format (unit mm)*
G04 Created by KiCad (PCBNEW 8.0.8) date 2025-04-03 17:01:25*
%MOMM*%
%LPD*%
G01*
G04 APERTURE LIST*
%ADD10C,0.120000*%
%ADD11C,0.152400*%
G04 APERTURE END LIST*
D10*
%TO.C,L7*%
X35836811Y-20949569D02*
X35037567Y-20949569D01*
X35836811Y-22069569D02*
X35037567Y-22069569D01*
D11*
%TO.C,U2*%
X29490245Y-18296800D02*
X29490245Y-18738059D01*
X29490245Y-21157541D02*
X29490245Y-21598800D01*
X29490245Y-21598800D02*
X29931504Y-21598800D01*
X29931504Y-18296800D02*
X29490245Y-18296800D01*
X32350986Y-21598800D02*
X32792245Y-21598800D01*
X32792245Y-18296800D02*
X32350986Y-18296800D01*
X32792245Y-18738059D02*
X32792245Y-18296800D01*
X32792245Y-21598800D02*
X32792245Y-21157541D01*
D10*
%TO.C,C17*%
X35677940Y-18875815D02*
X35155436Y-18875815D01*
X35677940Y-20345815D02*
X35155436Y-20345815D01*
%TO.C,R6*%
X27342995Y-25502418D02*
X27342995Y-25048290D01*
X28812995Y-25502418D02*
X28812995Y-25048290D01*
%TO.C,C4*%
X20766011Y-16067819D02*
X20243507Y-16067819D01*
X20766011Y-17537819D02*
X20243507Y-17537819D01*
%TO.C,L2*%
X25548385Y-25854034D02*
X25548385Y-25054790D01*
X26668385Y-25854034D02*
X26668385Y-25054790D01*
%TO.C,C14*%
X31605436Y-24630119D02*
X32127940Y-24630119D01*
X31605436Y-26100119D02*
X32127940Y-26100119D01*
%TO.C,C7*%
X23542921Y-29358819D02*
X23542921Y-28836315D01*
X25012921Y-29358819D02*
X25012921Y-28836315D01*
%TO.C,C10*%
X27614780Y-16067819D02*
X27092276Y-16067819D01*
X27614780Y-17537819D02*
X27092276Y-17537819D01*
%TO.C,C13*%
X31605436Y-22630119D02*
X32127940Y-22630119D01*
X31605436Y-24100119D02*
X32127940Y-24100119D01*
%TO.C,C11*%
X31188748Y-15765000D02*
X31711252Y-15765000D01*
X31188748Y-17235000D02*
X31711252Y-17235000D01*
%TO.C,R1*%
X23681574Y-16057567D02*
X24135702Y-16057567D01*
X23681574Y-17527567D02*
X24135702Y-17527567D01*
%TO.C,C3*%
X21158943Y-35270044D02*
X21681447Y-35270044D01*
X21158943Y-36740044D02*
X21681447Y-36740044D01*
%TO.C,C15*%
X35196438Y-24645681D02*
X35718942Y-24645681D01*
X35196438Y-26115681D02*
X35718942Y-26115681D01*
%TO.C,U1*%
X19860195Y-19657958D02*
X19860195Y-19172958D01*
X19860195Y-23152958D02*
X19860195Y-22427958D01*
X20585195Y-18932958D02*
X20160195Y-18932958D01*
X20585195Y-23152958D02*
X19860195Y-23152958D01*
X23355195Y-18932958D02*
X24080195Y-18932958D01*
X23355195Y-23152958D02*
X24080195Y-23152958D01*
X24080195Y-18932958D02*
X24080195Y-19657958D01*
X24080195Y-23152958D02*
X24080195Y-22427958D01*
X19860195Y-18932958D02*
X19620195Y-18602958D01*
X20100195Y-18602958D01*
X19860195Y-18932958D01*
G36*
X19860195Y-18932958D02*
G01*
X19620195Y-18602958D01*
X20100195Y-18602958D01*
X19860195Y-18932958D01*
G37*
%TO.C,R2*%
X21812403Y-24991701D02*
X21358275Y-24991701D01*
X21812403Y-26461701D02*
X21358275Y-26461701D01*
%TO.C,C8*%
X25542921Y-29358819D02*
X25542921Y-28836315D01*
X27012921Y-29358819D02*
X27012921Y-28836315D01*
%TO.C,C9*%
X26662368Y-18322794D02*
X26139864Y-18322794D01*
X26662368Y-19792794D02*
X26139864Y-19792794D01*
%TO.C,Y1*%
X19570195Y-27131930D02*
X19570195Y-32881930D01*
X19570195Y-32881930D02*
X23170195Y-32881930D01*
X23170195Y-32881930D02*
X23170195Y-27131930D01*
%TO.C,L4*%
X25560651Y-21497851D02*
X25560651Y-22297095D01*
X26680651Y-21497851D02*
X26680651Y-22297095D01*
%TO.C,C6*%
X21681447Y-33246930D02*
X21158943Y-33246930D01*
X21681447Y-34716930D02*
X21158943Y-34716930D01*
%TO.C,R4*%
X27262261Y-21595160D02*
X27262261Y-22049288D01*
X28732261Y-21595160D02*
X28732261Y-22049288D01*
%TO.C,J2*%
X15670000Y-17130000D02*
X17000000Y-17130000D01*
X15670000Y-18460000D02*
X15670000Y-17130000D01*
X15670000Y-19730000D02*
X15670000Y-37570000D01*
X15670000Y-19730000D02*
X18330000Y-19730000D01*
X15670000Y-37570000D02*
X18330000Y-37570000D01*
X18330000Y-19730000D02*
X18330000Y-37570000D01*
%TO.C,L3*%
X23848385Y-25854034D02*
X23848385Y-25054790D01*
X24968385Y-25854034D02*
X24968385Y-25054790D01*
%TO.C,C16*%
X35188748Y-22630119D02*
X35711252Y-22630119D01*
X35188748Y-24100119D02*
X35711252Y-24100119D01*
%TO.C,C12*%
X34688748Y-15765000D02*
X35211252Y-15765000D01*
X34688748Y-17235000D02*
X35211252Y-17235000D01*
%TO.C,C5*%
X23558667Y-32293124D02*
X23558667Y-32815628D01*
X25028667Y-32293124D02*
X25028667Y-32815628D01*
%TO.C,L5*%
X32256057Y-26692339D02*
X31456813Y-26692339D01*
X32256057Y-27812339D02*
X31456813Y-27812339D01*
%TO.C,C1*%
X24653613Y-35265000D02*
X25176117Y-35265000D01*
X24653613Y-36735000D02*
X25176117Y-36735000D01*
%TO.C,J1*%
X38175366Y-19808667D02*
X38175366Y-18698667D01*
X38175366Y-22598667D02*
X38175366Y-21488667D01*
X41425366Y-19808667D02*
X41425366Y-18698667D01*
X41425366Y-22598667D02*
X41425366Y-21488667D01*
%TO.C,R5*%
X27590158Y-28879106D02*
X27590158Y-29333234D01*
X29060158Y-28879106D02*
X29060158Y-29333234D01*
%TD*%
M02*
