%TF.GenerationSoftware,KiCad,Pcbnew,8.0.8*%
%TF.CreationDate,2025-04-03T17:01:25+02:00*%
%TF.ProjectId,nrf24small,6e726632-3473-46d6-916c-6c2e6b696361,rev?*%
%TF.SameCoordinates,Original*%
%TF.FileFunction,Paste,Top*%
%TF.FilePolarity,Positive*%
%FSLAX46Y46*%
G04 Gerber Fmt 4.6, Leading zero omitted, Abs format (unit mm)*
G04 Created by KiCad (PCBNEW 8.0.8) date 2025-04-03 17:01:25*
%MOMM*%
%LPD*%
G01*
G04 APERTURE LIST*
G04 Aperture macros list*
%AMRoundRect*
0 Rectangle with rounded corners*
0 $1 Rounding radius*
0 $2 $3 $4 $5 $6 $7 $8 $9 X,Y pos of 4 corners*
0 Add a 4 corners polygon primitive as box body*
4,1,4,$2,$3,$4,$5,$6,$7,$8,$9,$2,$3,0*
0 Add four circle primitives for the rounded corners*
1,1,$1+$1,$2,$3*
1,1,$1+$1,$4,$5*
1,1,$1+$1,$6,$7*
1,1,$1+$1,$8,$9*
0 Add four rect primitives between the rounded corners*
20,1,$1+$1,$2,$3,$4,$5,0*
20,1,$1+$1,$4,$5,$6,$7,0*
20,1,$1+$1,$6,$7,$8,$9,0*
20,1,$1+$1,$8,$9,$2,$3,0*%
G04 Aperture macros list end*
%ADD10RoundRect,0.218750X0.218750X0.381250X-0.218750X0.381250X-0.218750X-0.381250X0.218750X-0.381250X0*%
%ADD11R,0.254000X0.762000*%
%ADD12R,0.762000X0.254000*%
%ADD13R,1.752600X1.752600*%
%ADD14RoundRect,0.250000X0.250000X0.475000X-0.250000X0.475000X-0.250000X-0.475000X0.250000X-0.475000X0*%
%ADD15RoundRect,0.250000X0.450000X-0.262500X0.450000X0.262500X-0.450000X0.262500X-0.450000X-0.262500X0*%
%ADD16RoundRect,0.218750X0.381250X-0.218750X0.381250X0.218750X-0.381250X0.218750X-0.381250X-0.218750X0*%
%ADD17RoundRect,0.250000X-0.250000X-0.475000X0.250000X-0.475000X0.250000X0.475000X-0.250000X0.475000X0*%
%ADD18RoundRect,0.250000X0.475000X-0.250000X0.475000X0.250000X-0.475000X0.250000X-0.475000X-0.250000X0*%
%ADD19RoundRect,0.250000X-0.262500X-0.450000X0.262500X-0.450000X0.262500X0.450000X-0.262500X0.450000X0*%
%ADD20RoundRect,0.250000X-0.255000X-0.255000X0.255000X-0.255000X0.255000X0.255000X-0.255000X0.255000X0*%
%ADD21RoundRect,0.062500X-0.350000X-0.062500X0.350000X-0.062500X0.350000X0.062500X-0.350000X0.062500X0*%
%ADD22RoundRect,0.062500X-0.062500X-0.350000X0.062500X-0.350000X0.062500X0.350000X-0.062500X0.350000X0*%
%ADD23RoundRect,0.250000X0.262500X0.450000X-0.262500X0.450000X-0.262500X-0.450000X0.262500X-0.450000X0*%
%ADD24R,2.400000X2.000000*%
%ADD25RoundRect,0.218750X-0.381250X0.218750X-0.381250X-0.218750X0.381250X-0.218750X0.381250X0.218750X0*%
%ADD26RoundRect,0.250000X-0.450000X0.262500X-0.450000X-0.262500X0.450000X-0.262500X0.450000X0.262500X0*%
%ADD27RoundRect,0.250000X-0.475000X0.250000X-0.475000X-0.250000X0.475000X-0.250000X0.475000X0.250000X0*%
G04 APERTURE END LIST*
D10*
%TO.C,L7*%
X36499689Y-21509569D03*
X34374689Y-21509569D03*
%TD*%
D11*
%TO.C,U2*%
X31891966Y-18489231D03*
X31391965Y-18489231D03*
X30891965Y-18489231D03*
X30391964Y-18489231D03*
D12*
X29680223Y-19189613D03*
X29680223Y-19689614D03*
X29680223Y-20189614D03*
X29680223Y-20689615D03*
D11*
X30383166Y-21411381D03*
X30883167Y-21411381D03*
X31383167Y-21411381D03*
X31883168Y-21411381D03*
D12*
X32599867Y-20692122D03*
X32599867Y-20192121D03*
X32599867Y-19692121D03*
X32599867Y-19192120D03*
D13*
X31141245Y-19947800D03*
%TD*%
D14*
%TO.C,C17*%
X36366688Y-19610815D03*
X34466688Y-19610815D03*
%TD*%
D15*
%TO.C,R6*%
X28077995Y-26187854D03*
X28077995Y-24362854D03*
%TD*%
D14*
%TO.C,C4*%
X21454759Y-16802819D03*
X19554759Y-16802819D03*
%TD*%
D16*
%TO.C,L2*%
X26108385Y-26516912D03*
X26108385Y-24391912D03*
%TD*%
D17*
%TO.C,C14*%
X30916688Y-25365119D03*
X32816688Y-25365119D03*
%TD*%
D18*
%TO.C,C7*%
X24277921Y-30047567D03*
X24277921Y-28147567D03*
%TD*%
D14*
%TO.C,C10*%
X28303528Y-16802819D03*
X26403528Y-16802819D03*
%TD*%
D17*
%TO.C,C13*%
X30916688Y-23365119D03*
X32816688Y-23365119D03*
%TD*%
%TO.C,C11*%
X30500000Y-16500000D03*
X32400000Y-16500000D03*
%TD*%
D19*
%TO.C,R1*%
X22996138Y-16792567D03*
X24821138Y-16792567D03*
%TD*%
D17*
%TO.C,C3*%
X20470195Y-36005044D03*
X22370195Y-36005044D03*
%TD*%
%TO.C,C15*%
X34507690Y-25380681D03*
X36407690Y-25380681D03*
%TD*%
D20*
%TO.C,U1*%
X21345195Y-20417958D03*
X21345195Y-21667958D03*
X22595195Y-20417958D03*
X22595195Y-21667958D03*
D21*
X20032695Y-20042958D03*
X20032695Y-20542958D03*
X20032695Y-21042958D03*
X20032695Y-21542958D03*
X20032695Y-22042958D03*
D22*
X20970195Y-22980458D03*
X21470195Y-22980458D03*
X21970195Y-22980458D03*
X22470195Y-22980458D03*
X22970195Y-22980458D03*
D21*
X23907695Y-22042958D03*
X23907695Y-21542958D03*
X23907695Y-21042958D03*
X23907695Y-20542958D03*
X23907695Y-20042958D03*
D22*
X22970195Y-19105458D03*
X22470195Y-19105458D03*
X21970195Y-19105458D03*
X21470195Y-19105458D03*
X20970195Y-19105458D03*
%TD*%
D23*
%TO.C,R2*%
X22497839Y-25726701D03*
X20672839Y-25726701D03*
%TD*%
D18*
%TO.C,C8*%
X26277921Y-30047567D03*
X26277921Y-28147567D03*
%TD*%
D14*
%TO.C,C9*%
X27351116Y-19057794D03*
X25451116Y-19057794D03*
%TD*%
D24*
%TO.C,Y1*%
X21370195Y-31681930D03*
X21370195Y-27981930D03*
%TD*%
D25*
%TO.C,L4*%
X26120651Y-20834973D03*
X26120651Y-22959973D03*
%TD*%
D14*
%TO.C,C6*%
X22370195Y-33981930D03*
X20470195Y-33981930D03*
%TD*%
D26*
%TO.C,R4*%
X27997261Y-20909724D03*
X27997261Y-22734724D03*
%TD*%
D16*
%TO.C,L3*%
X24408385Y-26516912D03*
X24408385Y-24391912D03*
%TD*%
D17*
%TO.C,C16*%
X34500000Y-23365119D03*
X36400000Y-23365119D03*
%TD*%
%TO.C,C12*%
X34000000Y-16500000D03*
X35900000Y-16500000D03*
%TD*%
D27*
%TO.C,C5*%
X24293667Y-31604376D03*
X24293667Y-33504376D03*
%TD*%
D10*
%TO.C,L5*%
X32918935Y-27252339D03*
X30793935Y-27252339D03*
%TD*%
D17*
%TO.C,C1*%
X23964865Y-36000000D03*
X25864865Y-36000000D03*
%TD*%
D26*
%TO.C,R5*%
X28325158Y-28193670D03*
X28325158Y-30018670D03*
%TD*%
M02*
