%TF.GenerationSoftware,KiCad,Pcbnew,8.0.8*%
%TF.CreationDate,2025-03-31T21:12:05+02:00*%
%TF.ProjectId,nrf24small,6e726632-3473-46d6-916c-6c2e6b696361,rev?*%
%TF.SameCoordinates,Original*%
%TF.FileFunction,Copper,L1,Top*%
%TF.FilePolarity,Positive*%
%FSLAX46Y46*%
G04 Gerber Fmt 4.6, Leading zero omitted, Abs format (unit mm)*
G04 Created by KiCad (PCBNEW 8.0.8) date 2025-03-31 21:12:05*
%MOMM*%
%LPD*%
G01*
G04 APERTURE LIST*
G04 Aperture macros list*
%AMRoundRect*
0 Rectangle with rounded corners*
0 $1 Rounding radius*
0 $2 $3 $4 $5 $6 $7 $8 $9 X,Y pos of 4 corners*
0 Add a 4 corners polygon primitive as box body*
4,1,4,$2,$3,$4,$5,$6,$7,$8,$9,$2,$3,0*
0 Add four circle primitives for the rounded corners*
1,1,$1+$1,$2,$3*
1,1,$1+$1,$4,$5*
1,1,$1+$1,$6,$7*
1,1,$1+$1,$8,$9*
0 Add four rect primitives between the rounded corners*
20,1,$1+$1,$2,$3,$4,$5,0*
20,1,$1+$1,$4,$5,$6,$7,0*
20,1,$1+$1,$6,$7,$8,$9,0*
20,1,$1+$1,$8,$9,$2,$3,0*%
G04 Aperture macros list end*
%ADD10C,0.300000*%
%TA.AperFunction,NonConductor*%
%ADD11C,0.300000*%
%TD*%
%TA.AperFunction,NonConductor*%
%ADD12C,0.200000*%
%TD*%
%TA.AperFunction,SMDPad,CuDef*%
%ADD13RoundRect,0.250000X1.350000X-0.385000X1.350000X0.385000X-1.350000X0.385000X-1.350000X-0.385000X0*%
%TD*%
%TA.AperFunction,SMDPad,CuDef*%
%ADD14RoundRect,0.250000X1.600000X-0.425000X1.600000X0.425000X-1.600000X0.425000X-1.600000X-0.425000X0*%
%TD*%
%TA.AperFunction,SMDPad,CuDef*%
%ADD15R,2.000000X2.400000*%
%TD*%
%TA.AperFunction,SMDPad,CuDef*%
%ADD16RoundRect,0.062500X-0.350000X-0.062500X0.350000X-0.062500X0.350000X0.062500X-0.350000X0.062500X0*%
%TD*%
%TA.AperFunction,SMDPad,CuDef*%
%ADD17RoundRect,0.062500X-0.062500X-0.350000X0.062500X-0.350000X0.062500X0.350000X-0.062500X0.350000X0*%
%TD*%
%TA.AperFunction,HeatsinkPad*%
%ADD18R,2.500000X2.500000*%
%TD*%
%TA.AperFunction,ComponentPad*%
%ADD19R,1.700000X1.700000*%
%TD*%
%TA.AperFunction,ComponentPad*%
%ADD20O,1.700000X1.700000*%
%TD*%
%TA.AperFunction,SMDPad,CuDef*%
%ADD21RoundRect,0.250000X-0.475000X0.250000X-0.475000X-0.250000X0.475000X-0.250000X0.475000X0.250000X0*%
%TD*%
%TA.AperFunction,SMDPad,CuDef*%
%ADD22RoundRect,0.250000X0.250000X0.475000X-0.250000X0.475000X-0.250000X-0.475000X0.250000X-0.475000X0*%
%TD*%
%TA.AperFunction,SMDPad,CuDef*%
%ADD23RoundRect,0.250000X-0.250000X-0.475000X0.250000X-0.475000X0.250000X0.475000X-0.250000X0.475000X0*%
%TD*%
%TA.AperFunction,SMDPad,CuDef*%
%ADD24RoundRect,0.218750X0.381250X-0.218750X0.381250X0.218750X-0.381250X0.218750X-0.381250X-0.218750X0*%
%TD*%
%TA.AperFunction,SMDPad,CuDef*%
%ADD25RoundRect,0.218750X-0.381250X0.218750X-0.381250X-0.218750X0.381250X-0.218750X0.381250X0.218750X0*%
%TD*%
%TA.AperFunction,SMDPad,CuDef*%
%ADD26RoundRect,0.250000X0.262500X0.450000X-0.262500X0.450000X-0.262500X-0.450000X0.262500X-0.450000X0*%
%TD*%
%TA.AperFunction,Conductor*%
%ADD27C,0.200000*%
%TD*%
G04 APERTURE END LIST*
D10*
D11*
X80521185Y-67428569D02*
X80449757Y-67357141D01*
X80449757Y-67357141D02*
X80378328Y-67214284D01*
X80378328Y-67214284D02*
X80378328Y-66857141D01*
X80378328Y-66857141D02*
X80449757Y-66714284D01*
X80449757Y-66714284D02*
X80521185Y-66642855D01*
X80521185Y-66642855D02*
X80664042Y-66571426D01*
X80664042Y-66571426D02*
X80806900Y-66571426D01*
X80806900Y-66571426D02*
X81021185Y-66642855D01*
X81021185Y-66642855D02*
X81878328Y-67499998D01*
X81878328Y-67499998D02*
X81878328Y-66571426D01*
X80378328Y-66071427D02*
X80378328Y-65142855D01*
X80378328Y-65142855D02*
X80949757Y-65642855D01*
X80949757Y-65642855D02*
X80949757Y-65428570D01*
X80949757Y-65428570D02*
X81021185Y-65285713D01*
X81021185Y-65285713D02*
X81092614Y-65214284D01*
X81092614Y-65214284D02*
X81235471Y-65142855D01*
X81235471Y-65142855D02*
X81592614Y-65142855D01*
X81592614Y-65142855D02*
X81735471Y-65214284D01*
X81735471Y-65214284D02*
X81806900Y-65285713D01*
X81806900Y-65285713D02*
X81878328Y-65428570D01*
X81878328Y-65428570D02*
X81878328Y-65857141D01*
X81878328Y-65857141D02*
X81806900Y-65999998D01*
X81806900Y-65999998D02*
X81735471Y-66071427D01*
X81806900Y-64428570D02*
X81878328Y-64428570D01*
X81878328Y-64428570D02*
X82021185Y-64499999D01*
X82021185Y-64499999D02*
X82092614Y-64571427D01*
X80378328Y-63499998D02*
X80378328Y-63357141D01*
X80378328Y-63357141D02*
X80449757Y-63214284D01*
X80449757Y-63214284D02*
X80521185Y-63142856D01*
X80521185Y-63142856D02*
X80664042Y-63071427D01*
X80664042Y-63071427D02*
X80949757Y-62999998D01*
X80949757Y-62999998D02*
X81306900Y-62999998D01*
X81306900Y-62999998D02*
X81592614Y-63071427D01*
X81592614Y-63071427D02*
X81735471Y-63142856D01*
X81735471Y-63142856D02*
X81806900Y-63214284D01*
X81806900Y-63214284D02*
X81878328Y-63357141D01*
X81878328Y-63357141D02*
X81878328Y-63499998D01*
X81878328Y-63499998D02*
X81806900Y-63642856D01*
X81806900Y-63642856D02*
X81735471Y-63714284D01*
X81735471Y-63714284D02*
X81592614Y-63785713D01*
X81592614Y-63785713D02*
X81306900Y-63857141D01*
X81306900Y-63857141D02*
X80949757Y-63857141D01*
X80949757Y-63857141D02*
X80664042Y-63785713D01*
X80664042Y-63785713D02*
X80521185Y-63714284D01*
X80521185Y-63714284D02*
X80449757Y-63642856D01*
X80449757Y-63642856D02*
X80378328Y-63499998D01*
X80378328Y-62071427D02*
X80378328Y-61928570D01*
X80378328Y-61928570D02*
X80449757Y-61785713D01*
X80449757Y-61785713D02*
X80521185Y-61714285D01*
X80521185Y-61714285D02*
X80664042Y-61642856D01*
X80664042Y-61642856D02*
X80949757Y-61571427D01*
X80949757Y-61571427D02*
X81306900Y-61571427D01*
X81306900Y-61571427D02*
X81592614Y-61642856D01*
X81592614Y-61642856D02*
X81735471Y-61714285D01*
X81735471Y-61714285D02*
X81806900Y-61785713D01*
X81806900Y-61785713D02*
X81878328Y-61928570D01*
X81878328Y-61928570D02*
X81878328Y-62071427D01*
X81878328Y-62071427D02*
X81806900Y-62214285D01*
X81806900Y-62214285D02*
X81735471Y-62285713D01*
X81735471Y-62285713D02*
X81592614Y-62357142D01*
X81592614Y-62357142D02*
X81306900Y-62428570D01*
X81306900Y-62428570D02*
X80949757Y-62428570D01*
X80949757Y-62428570D02*
X80664042Y-62357142D01*
X80664042Y-62357142D02*
X80521185Y-62285713D01*
X80521185Y-62285713D02*
X80449757Y-62214285D01*
X80449757Y-62214285D02*
X80378328Y-62071427D01*
X80378328Y-60642856D02*
X80378328Y-60499999D01*
X80378328Y-60499999D02*
X80449757Y-60357142D01*
X80449757Y-60357142D02*
X80521185Y-60285714D01*
X80521185Y-60285714D02*
X80664042Y-60214285D01*
X80664042Y-60214285D02*
X80949757Y-60142856D01*
X80949757Y-60142856D02*
X81306900Y-60142856D01*
X81306900Y-60142856D02*
X81592614Y-60214285D01*
X81592614Y-60214285D02*
X81735471Y-60285714D01*
X81735471Y-60285714D02*
X81806900Y-60357142D01*
X81806900Y-60357142D02*
X81878328Y-60499999D01*
X81878328Y-60499999D02*
X81878328Y-60642856D01*
X81878328Y-60642856D02*
X81806900Y-60785714D01*
X81806900Y-60785714D02*
X81735471Y-60857142D01*
X81735471Y-60857142D02*
X81592614Y-60928571D01*
X81592614Y-60928571D02*
X81306900Y-60999999D01*
X81306900Y-60999999D02*
X80949757Y-60999999D01*
X80949757Y-60999999D02*
X80664042Y-60928571D01*
X80664042Y-60928571D02*
X80521185Y-60857142D01*
X80521185Y-60857142D02*
X80449757Y-60785714D01*
X80449757Y-60785714D02*
X80378328Y-60642856D01*
X80378328Y-59214285D02*
X80378328Y-59071428D01*
X80378328Y-59071428D02*
X80449757Y-58928571D01*
X80449757Y-58928571D02*
X80521185Y-58857143D01*
X80521185Y-58857143D02*
X80664042Y-58785714D01*
X80664042Y-58785714D02*
X80949757Y-58714285D01*
X80949757Y-58714285D02*
X81306900Y-58714285D01*
X81306900Y-58714285D02*
X81592614Y-58785714D01*
X81592614Y-58785714D02*
X81735471Y-58857143D01*
X81735471Y-58857143D02*
X81806900Y-58928571D01*
X81806900Y-58928571D02*
X81878328Y-59071428D01*
X81878328Y-59071428D02*
X81878328Y-59214285D01*
X81878328Y-59214285D02*
X81806900Y-59357143D01*
X81806900Y-59357143D02*
X81735471Y-59428571D01*
X81735471Y-59428571D02*
X81592614Y-59500000D01*
X81592614Y-59500000D02*
X81306900Y-59571428D01*
X81306900Y-59571428D02*
X80949757Y-59571428D01*
X80949757Y-59571428D02*
X80664042Y-59500000D01*
X80664042Y-59500000D02*
X80521185Y-59428571D01*
X80521185Y-59428571D02*
X80449757Y-59357143D01*
X80449757Y-59357143D02*
X80378328Y-59214285D01*
X81878328Y-56928572D02*
X80878328Y-56928572D01*
X81021185Y-56928572D02*
X80949757Y-56857143D01*
X80949757Y-56857143D02*
X80878328Y-56714286D01*
X80878328Y-56714286D02*
X80878328Y-56500000D01*
X80878328Y-56500000D02*
X80949757Y-56357143D01*
X80949757Y-56357143D02*
X81092614Y-56285715D01*
X81092614Y-56285715D02*
X81878328Y-56285715D01*
X81092614Y-56285715D02*
X80949757Y-56214286D01*
X80949757Y-56214286D02*
X80878328Y-56071429D01*
X80878328Y-56071429D02*
X80878328Y-55857143D01*
X80878328Y-55857143D02*
X80949757Y-55714286D01*
X80949757Y-55714286D02*
X81092614Y-55642857D01*
X81092614Y-55642857D02*
X81878328Y-55642857D01*
X81878328Y-54928572D02*
X80878328Y-54928572D01*
X81021185Y-54928572D02*
X80949757Y-54857143D01*
X80949757Y-54857143D02*
X80878328Y-54714286D01*
X80878328Y-54714286D02*
X80878328Y-54500000D01*
X80878328Y-54500000D02*
X80949757Y-54357143D01*
X80949757Y-54357143D02*
X81092614Y-54285715D01*
X81092614Y-54285715D02*
X81878328Y-54285715D01*
X81092614Y-54285715D02*
X80949757Y-54214286D01*
X80949757Y-54214286D02*
X80878328Y-54071429D01*
X80878328Y-54071429D02*
X80878328Y-53857143D01*
X80878328Y-53857143D02*
X80949757Y-53714286D01*
X80949757Y-53714286D02*
X81092614Y-53642857D01*
X81092614Y-53642857D02*
X81878328Y-53642857D01*
D12*
X83500000Y-49000000D02*
X83586420Y-49000000D01*
X83500000Y-72000000D02*
X83586420Y-72000000D01*
X83000000Y-49000000D02*
X83000000Y-72000000D01*
X83000000Y-49000000D02*
X83000000Y-72000000D01*
X83000000Y-49000000D02*
X83586421Y-50126504D01*
X83000000Y-49000000D02*
X82413579Y-50126504D01*
X83000000Y-72000000D02*
X82413579Y-70873496D01*
X83000000Y-72000000D02*
X83586421Y-70873496D01*
D10*
D11*
X88321430Y-46521185D02*
X88392858Y-46449757D01*
X88392858Y-46449757D02*
X88535716Y-46378328D01*
X88535716Y-46378328D02*
X88892858Y-46378328D01*
X88892858Y-46378328D02*
X89035716Y-46449757D01*
X89035716Y-46449757D02*
X89107144Y-46521185D01*
X89107144Y-46521185D02*
X89178573Y-46664042D01*
X89178573Y-46664042D02*
X89178573Y-46806900D01*
X89178573Y-46806900D02*
X89107144Y-47021185D01*
X89107144Y-47021185D02*
X88250001Y-47878328D01*
X88250001Y-47878328D02*
X89178573Y-47878328D01*
X90464287Y-46878328D02*
X90464287Y-47878328D01*
X90107144Y-46306900D02*
X89750001Y-47378328D01*
X89750001Y-47378328D02*
X90678572Y-47378328D01*
X91321429Y-47806900D02*
X91321429Y-47878328D01*
X91321429Y-47878328D02*
X91250000Y-48021185D01*
X91250000Y-48021185D02*
X91178572Y-48092614D01*
X92678572Y-46378328D02*
X91964286Y-46378328D01*
X91964286Y-46378328D02*
X91892858Y-47092614D01*
X91892858Y-47092614D02*
X91964286Y-47021185D01*
X91964286Y-47021185D02*
X92107144Y-46949757D01*
X92107144Y-46949757D02*
X92464286Y-46949757D01*
X92464286Y-46949757D02*
X92607144Y-47021185D01*
X92607144Y-47021185D02*
X92678572Y-47092614D01*
X92678572Y-47092614D02*
X92750001Y-47235471D01*
X92750001Y-47235471D02*
X92750001Y-47592614D01*
X92750001Y-47592614D02*
X92678572Y-47735471D01*
X92678572Y-47735471D02*
X92607144Y-47806900D01*
X92607144Y-47806900D02*
X92464286Y-47878328D01*
X92464286Y-47878328D02*
X92107144Y-47878328D01*
X92107144Y-47878328D02*
X91964286Y-47806900D01*
X91964286Y-47806900D02*
X91892858Y-47735471D01*
X93678572Y-46378328D02*
X93821429Y-46378328D01*
X93821429Y-46378328D02*
X93964286Y-46449757D01*
X93964286Y-46449757D02*
X94035715Y-46521185D01*
X94035715Y-46521185D02*
X94107143Y-46664042D01*
X94107143Y-46664042D02*
X94178572Y-46949757D01*
X94178572Y-46949757D02*
X94178572Y-47306900D01*
X94178572Y-47306900D02*
X94107143Y-47592614D01*
X94107143Y-47592614D02*
X94035715Y-47735471D01*
X94035715Y-47735471D02*
X93964286Y-47806900D01*
X93964286Y-47806900D02*
X93821429Y-47878328D01*
X93821429Y-47878328D02*
X93678572Y-47878328D01*
X93678572Y-47878328D02*
X93535715Y-47806900D01*
X93535715Y-47806900D02*
X93464286Y-47735471D01*
X93464286Y-47735471D02*
X93392857Y-47592614D01*
X93392857Y-47592614D02*
X93321429Y-47306900D01*
X93321429Y-47306900D02*
X93321429Y-46949757D01*
X93321429Y-46949757D02*
X93392857Y-46664042D01*
X93392857Y-46664042D02*
X93464286Y-46521185D01*
X93464286Y-46521185D02*
X93535715Y-46449757D01*
X93535715Y-46449757D02*
X93678572Y-46378328D01*
X95107143Y-46378328D02*
X95250000Y-46378328D01*
X95250000Y-46378328D02*
X95392857Y-46449757D01*
X95392857Y-46449757D02*
X95464286Y-46521185D01*
X95464286Y-46521185D02*
X95535714Y-46664042D01*
X95535714Y-46664042D02*
X95607143Y-46949757D01*
X95607143Y-46949757D02*
X95607143Y-47306900D01*
X95607143Y-47306900D02*
X95535714Y-47592614D01*
X95535714Y-47592614D02*
X95464286Y-47735471D01*
X95464286Y-47735471D02*
X95392857Y-47806900D01*
X95392857Y-47806900D02*
X95250000Y-47878328D01*
X95250000Y-47878328D02*
X95107143Y-47878328D01*
X95107143Y-47878328D02*
X94964286Y-47806900D01*
X94964286Y-47806900D02*
X94892857Y-47735471D01*
X94892857Y-47735471D02*
X94821428Y-47592614D01*
X94821428Y-47592614D02*
X94750000Y-47306900D01*
X94750000Y-47306900D02*
X94750000Y-46949757D01*
X94750000Y-46949757D02*
X94821428Y-46664042D01*
X94821428Y-46664042D02*
X94892857Y-46521185D01*
X94892857Y-46521185D02*
X94964286Y-46449757D01*
X94964286Y-46449757D02*
X95107143Y-46378328D01*
X96535714Y-46378328D02*
X96678571Y-46378328D01*
X96678571Y-46378328D02*
X96821428Y-46449757D01*
X96821428Y-46449757D02*
X96892857Y-46521185D01*
X96892857Y-46521185D02*
X96964285Y-46664042D01*
X96964285Y-46664042D02*
X97035714Y-46949757D01*
X97035714Y-46949757D02*
X97035714Y-47306900D01*
X97035714Y-47306900D02*
X96964285Y-47592614D01*
X96964285Y-47592614D02*
X96892857Y-47735471D01*
X96892857Y-47735471D02*
X96821428Y-47806900D01*
X96821428Y-47806900D02*
X96678571Y-47878328D01*
X96678571Y-47878328D02*
X96535714Y-47878328D01*
X96535714Y-47878328D02*
X96392857Y-47806900D01*
X96392857Y-47806900D02*
X96321428Y-47735471D01*
X96321428Y-47735471D02*
X96249999Y-47592614D01*
X96249999Y-47592614D02*
X96178571Y-47306900D01*
X96178571Y-47306900D02*
X96178571Y-46949757D01*
X96178571Y-46949757D02*
X96249999Y-46664042D01*
X96249999Y-46664042D02*
X96321428Y-46521185D01*
X96321428Y-46521185D02*
X96392857Y-46449757D01*
X96392857Y-46449757D02*
X96535714Y-46378328D01*
X98821427Y-47878328D02*
X98821427Y-46878328D01*
X98821427Y-47021185D02*
X98892856Y-46949757D01*
X98892856Y-46949757D02*
X99035713Y-46878328D01*
X99035713Y-46878328D02*
X99249999Y-46878328D01*
X99249999Y-46878328D02*
X99392856Y-46949757D01*
X99392856Y-46949757D02*
X99464285Y-47092614D01*
X99464285Y-47092614D02*
X99464285Y-47878328D01*
X99464285Y-47092614D02*
X99535713Y-46949757D01*
X99535713Y-46949757D02*
X99678570Y-46878328D01*
X99678570Y-46878328D02*
X99892856Y-46878328D01*
X99892856Y-46878328D02*
X100035713Y-46949757D01*
X100035713Y-46949757D02*
X100107142Y-47092614D01*
X100107142Y-47092614D02*
X100107142Y-47878328D01*
X100821427Y-47878328D02*
X100821427Y-46878328D01*
X100821427Y-47021185D02*
X100892856Y-46949757D01*
X100892856Y-46949757D02*
X101035713Y-46878328D01*
X101035713Y-46878328D02*
X101249999Y-46878328D01*
X101249999Y-46878328D02*
X101392856Y-46949757D01*
X101392856Y-46949757D02*
X101464285Y-47092614D01*
X101464285Y-47092614D02*
X101464285Y-47878328D01*
X101464285Y-47092614D02*
X101535713Y-46949757D01*
X101535713Y-46949757D02*
X101678570Y-46878328D01*
X101678570Y-46878328D02*
X101892856Y-46878328D01*
X101892856Y-46878328D02*
X102035713Y-46949757D01*
X102035713Y-46949757D02*
X102107142Y-47092614D01*
X102107142Y-47092614D02*
X102107142Y-47878328D01*
D12*
X83000000Y-48500000D02*
X83000000Y-48413580D01*
X107500000Y-48500000D02*
X107500000Y-48413580D01*
X83000000Y-49000000D02*
X107500000Y-49000000D01*
X83000000Y-49000000D02*
X107500000Y-49000000D01*
X83000000Y-49000000D02*
X84126504Y-48413579D01*
X83000000Y-49000000D02*
X84126504Y-49586421D01*
X107500000Y-49000000D02*
X106373496Y-49586421D01*
X107500000Y-49000000D02*
X106373496Y-48413579D01*
D13*
%TO.P,J1,1,In*%
%TO.N,Net-(J1-In)*%
X105250000Y-54325000D03*
D14*
%TO.P,J1,2,Ext*%
%TO.N,GND*%
X105000000Y-51500000D03*
X105000000Y-57150000D03*
%TD*%
D15*
%TO.P,Y1,2,2*%
%TO.N,Net-(U1-XC1)*%
X93350000Y-64500000D03*
%TO.P,Y1,1,1*%
%TO.N,Net-(U1-XC2)*%
X89650000Y-64500000D03*
%TD*%
D16*
%TO.P,U1,1,CE*%
%TO.N,Net-(J2-Pin_1)*%
X88062500Y-55437500D03*
%TO.P,U1,2,CSN*%
%TO.N,Net-(J2-Pin_2)*%
X88062500Y-55937500D03*
%TO.P,U1,3,SCK*%
%TO.N,Net-(J2-Pin_3)*%
X88062500Y-56437500D03*
%TO.P,U1,4,MOSI*%
%TO.N,Net-(J2-Pin_4)*%
X88062500Y-56937500D03*
%TO.P,U1,5,MISO*%
%TO.N,Net-(J2-Pin_5)*%
X88062500Y-57437500D03*
D17*
%TO.P,U1,6,IRQ*%
%TO.N,Net-(J2-Pin_6)*%
X89000000Y-58375000D03*
%TO.P,U1,7,VDD*%
%TO.N,+3.3V*%
X89500000Y-58375000D03*
%TO.P,U1,8,VSS*%
%TO.N,GND*%
X90000000Y-58375000D03*
%TO.P,U1,9,XC2*%
%TO.N,Net-(U1-XC2)*%
X90500000Y-58375000D03*
%TO.P,U1,10,XC1*%
%TO.N,Net-(U1-XC1)*%
X91000000Y-58375000D03*
D16*
%TO.P,U1,11,VDD_PA*%
%TO.N,Net-(U1-VDD_PA)*%
X91937500Y-57437500D03*
%TO.P,U1,12,ANT1*%
%TO.N,Net-(U1-ANT1)*%
X91937500Y-56937500D03*
%TO.P,U1,13,ANT2*%
%TO.N,Net-(U1-ANT2)*%
X91937500Y-56437500D03*
%TO.P,U1,14,VSS*%
%TO.N,GND*%
X91937500Y-55937500D03*
%TO.P,U1,15,VDD*%
%TO.N,+3.3V*%
X91937500Y-55437500D03*
D17*
%TO.P,U1,16,IREF*%
%TO.N,Net-(U1-IREF)*%
X91000000Y-54500000D03*
%TO.P,U1,17,VSS*%
%TO.N,GND*%
X90500000Y-54500000D03*
%TO.P,U1,18,VDD*%
%TO.N,+3.3V*%
X90000000Y-54500000D03*
%TO.P,U1,19,DVDD*%
%TO.N,Net-(U1-DVDD)*%
X89500000Y-54500000D03*
%TO.P,U1,20,VSS*%
%TO.N,GND*%
X89000000Y-54500000D03*
D18*
%TO.P,U1,21*%
%TO.N,N/C*%
X90000000Y-56437500D03*
%TD*%
D19*
%TO.P,J2,1,Pin_1*%
%TO.N,Net-(J2-Pin_1)*%
X85500000Y-51460000D03*
D20*
%TO.P,J2,2,Pin_2*%
%TO.N,Net-(J2-Pin_2)*%
X85500000Y-54000000D03*
%TO.P,J2,3,Pin_3*%
%TO.N,Net-(J2-Pin_3)*%
X85500000Y-56540000D03*
%TO.P,J2,4,Pin_4*%
%TO.N,Net-(J2-Pin_4)*%
X85500000Y-59080000D03*
%TO.P,J2,5,Pin_5*%
%TO.N,Net-(J2-Pin_5)*%
X85500000Y-61620000D03*
%TO.P,J2,6,Pin_6*%
%TO.N,Net-(J2-Pin_6)*%
X85500000Y-64160000D03*
%TO.P,J2,7,Pin_7*%
%TO.N,+3.3V*%
X85500000Y-66700000D03*
%TO.P,J2,8,Pin_8*%
%TO.N,GND*%
X85500000Y-69240000D03*
%TD*%
D21*
%TO.P,C10,1*%
%TO.N,Net-(J1-In)*%
X101500000Y-52000000D03*
%TO.P,C10,2*%
%TO.N,GND*%
X101500000Y-53900000D03*
%TD*%
%TO.P,C9,1*%
%TO.N,Net-(J1-In)*%
X99450000Y-52000000D03*
%TO.P,C9,2*%
%TO.N,Net-(C9-Pad2)*%
X99450000Y-53900000D03*
%TD*%
D22*
%TO.P,C8,2*%
%TO.N,Net-(U1-VDD_PA)*%
X93500000Y-59000000D03*
%TO.P,C8,1*%
%TO.N,GND*%
X95400000Y-59000000D03*
%TD*%
%TO.P,C7,1*%
%TO.N,GND*%
X95400000Y-61000000D03*
%TO.P,C7,2*%
%TO.N,Net-(U1-VDD_PA)*%
X93500000Y-61000000D03*
%TD*%
D21*
%TO.P,C6,1*%
%TO.N,Net-(U1-XC2)*%
X89500000Y-67500000D03*
%TO.P,C6,2*%
%TO.N,GND*%
X89500000Y-69400000D03*
%TD*%
%TO.P,C5,1*%
%TO.N,Net-(U1-XC1)*%
X93500000Y-67500000D03*
%TO.P,C5,2*%
%TO.N,GND*%
X93500000Y-69400000D03*
%TD*%
D22*
%TO.P,C4,2*%
%TO.N,GND*%
X88125000Y-51937500D03*
%TO.P,C4,1*%
%TO.N,Net-(U1-DVDD)*%
X90025000Y-51937500D03*
%TD*%
D23*
%TO.P,C3,1*%
%TO.N,+3.3V*%
X95150000Y-51937500D03*
%TO.P,C3,2*%
%TO.N,GND*%
X97050000Y-51937500D03*
%TD*%
%TO.P,C1,1*%
%TO.N,+3.3V*%
X91625000Y-51937500D03*
%TO.P,C1,2*%
%TO.N,GND*%
X93525000Y-51937500D03*
%TD*%
D24*
%TO.P,L2,1,1*%
%TO.N,Net-(U1-ANT1)*%
X97000000Y-61125000D03*
%TO.P,L2,2,2*%
%TO.N,Net-(U1-VDD_PA)*%
X97000000Y-59000000D03*
%TD*%
D25*
%TO.P,L3,2,2*%
%TO.N,Net-(U1-ANT1)*%
X98800000Y-61125000D03*
%TO.P,L3,1,1*%
%TO.N,Net-(U1-ANT2)*%
X98800000Y-59000000D03*
%TD*%
%TO.P,L4,1,1*%
%TO.N,Net-(C9-Pad2)*%
X98800000Y-55500000D03*
%TO.P,L4,2,2*%
%TO.N,Net-(U1-ANT2)*%
X98800000Y-57625000D03*
%TD*%
D26*
%TO.P,R1,1*%
%TO.N,GND*%
X95412500Y-54500000D03*
%TO.P,R1,2*%
%TO.N,Net-(U1-IREF)*%
X93587500Y-54500000D03*
%TD*%
%TO.P,R2,1*%
%TO.N,Net-(U1-XC1)*%
X91000000Y-61000000D03*
%TO.P,R2,2*%
%TO.N,Net-(U1-XC2)*%
X89175000Y-61000000D03*
%TD*%
D27*
%TO.N,GND*%
X104750000Y-57150000D02*
X105000000Y-57150000D01*
X101500000Y-53900000D02*
X104750000Y-57150000D01*
%TO.N,Net-(J1-In)*%
X103825000Y-54325000D02*
X105250000Y-54325000D01*
X101500000Y-52000000D02*
X103825000Y-54325000D01*
%TO.N,GND*%
X103000000Y-51500000D02*
X105000000Y-51500000D01*
X102000000Y-50500000D02*
X103000000Y-51500000D01*
X95400000Y-67500000D02*
X95400000Y-61000000D01*
X93500000Y-69400000D02*
X95400000Y-67500000D01*
X89562500Y-50500000D02*
X88125000Y-51937500D01*
X102000000Y-50500000D02*
X89562500Y-50500000D01*
%TO.N,Net-(C9-Pad2)*%
X98800000Y-54550000D02*
X99450000Y-53900000D01*
X98800000Y-55500000D02*
X98800000Y-54550000D01*
%TO.N,GND*%
X96503186Y-55937500D02*
X97065686Y-56500000D01*
X97065686Y-56500000D02*
X100000000Y-56500000D01*
X91937500Y-55937500D02*
X96503186Y-55937500D01*
X100000000Y-55400000D02*
X100000000Y-56500000D01*
X101500000Y-53900000D02*
X100000000Y-55400000D01*
X87500000Y-60697058D02*
X87500000Y-67240000D01*
X88697058Y-59500000D02*
X87500000Y-60697058D01*
X89367572Y-59500000D02*
X88697058Y-59500000D01*
X87500000Y-67240000D02*
X85500000Y-69240000D01*
X90000000Y-58867572D02*
X89367572Y-59500000D01*
X90000000Y-58375000D02*
X90000000Y-58867572D01*
%TO.N,+3.3V*%
X89500000Y-58801886D02*
X89500000Y-58375000D01*
X88334314Y-59100000D02*
X89201886Y-59100000D01*
X87800000Y-59634314D02*
X88334314Y-59100000D01*
X89201886Y-59100000D02*
X89500000Y-58801886D01*
X87050000Y-60581372D02*
X87800000Y-59831372D01*
X87050000Y-64450000D02*
X87050000Y-60581372D01*
X87800000Y-59831372D02*
X87800000Y-59634314D01*
X85500000Y-66000000D02*
X87050000Y-64450000D01*
X85500000Y-66700000D02*
X85500000Y-66000000D01*
%TO.N,Net-(J2-Pin_6)*%
X88125000Y-58375000D02*
X89000000Y-58375000D01*
X87400000Y-59100000D02*
X88125000Y-58375000D01*
X87400000Y-59665686D02*
X87400000Y-59100000D01*
X86650000Y-62350000D02*
X86650000Y-60415686D01*
X86650000Y-60415686D02*
X87400000Y-59665686D01*
X85500000Y-64160000D02*
X85500000Y-63500000D01*
X85500000Y-63500000D02*
X86650000Y-62350000D01*
%TO.N,Net-(J2-Pin_5)*%
X87000000Y-59500000D02*
X87000000Y-58500000D01*
X85500000Y-61000000D02*
X87000000Y-59500000D01*
X85500000Y-61620000D02*
X85500000Y-61000000D01*
X87000000Y-58500000D02*
X88062500Y-57437500D01*
%TO.N,Net-(U1-XC1)*%
X93350000Y-63350000D02*
X93350000Y-64500000D01*
X91000000Y-61000000D02*
X93350000Y-63350000D01*
%TO.N,Net-(J1-In)*%
X99500000Y-52000000D02*
X101500000Y-52000000D01*
%TO.N,Net-(U1-ANT2)*%
X98800000Y-57625000D02*
X98800000Y-59000000D01*
X97625000Y-57625000D02*
X98800000Y-57625000D01*
X96437500Y-56437500D02*
X97625000Y-57625000D01*
X91937500Y-56437500D02*
X96437500Y-56437500D01*
%TO.N,Net-(U1-ANT1)*%
X97000000Y-61125000D02*
X98800000Y-61125000D01*
X97900000Y-60225000D02*
X97000000Y-61125000D01*
X96277186Y-56937500D02*
X97900000Y-58560314D01*
X91937500Y-56937500D02*
X96277186Y-56937500D01*
X97900000Y-58560314D02*
X97900000Y-60225000D01*
%TO.N,Net-(U1-VDD_PA)*%
X94525000Y-57975000D02*
X95975000Y-57975000D01*
X95975000Y-57975000D02*
X97000000Y-59000000D01*
X93500000Y-59000000D02*
X94525000Y-57975000D01*
X92532843Y-60032843D02*
X93500000Y-61000000D01*
X91937500Y-57437500D02*
X92532843Y-58032843D01*
X92532843Y-58032843D02*
X92532843Y-60032843D01*
%TO.N,GND*%
X95400000Y-59000000D02*
X95400000Y-61000000D01*
%TO.N,Net-(U1-VDD_PA)*%
X93500000Y-61000000D02*
X93500000Y-59000000D01*
%TO.N,+3.3V*%
X97534744Y-50912500D02*
X96175000Y-50912500D01*
X97850000Y-51227756D02*
X97534744Y-50912500D01*
X95909744Y-55500000D02*
X97850000Y-53559744D01*
X97850000Y-53559744D02*
X97850000Y-51227756D01*
X96175000Y-50912500D02*
X95150000Y-51937500D01*
X91937500Y-55437500D02*
X92000000Y-55500000D01*
X92000000Y-55500000D02*
X95909744Y-55500000D01*
%TO.N,GND*%
X93500000Y-69400000D02*
X89500000Y-69400000D01*
X89500000Y-69400000D02*
X85660000Y-69400000D01*
X85660000Y-69400000D02*
X85500000Y-69240000D01*
%TO.N,Net-(U1-XC1)*%
X93500000Y-65000000D02*
X93500000Y-67500000D01*
X93350000Y-64500000D02*
X93350000Y-64850000D01*
X93350000Y-64850000D02*
X93500000Y-65000000D01*
%TO.N,Net-(U1-XC2)*%
X89500000Y-65000000D02*
X89500000Y-67500000D01*
X89650000Y-64850000D02*
X89500000Y-65000000D01*
X89650000Y-64500000D02*
X89650000Y-64850000D01*
X89175000Y-64025000D02*
X89650000Y-64500000D01*
X89175000Y-61000000D02*
X89175000Y-64025000D01*
%TO.N,Net-(U1-XC1)*%
X91000000Y-61000000D02*
X91000000Y-58375000D01*
%TO.N,Net-(U1-XC2)*%
X90500000Y-59675000D02*
X90500000Y-58375000D01*
X89175000Y-61000000D02*
X90500000Y-59675000D01*
%TO.N,Net-(J2-Pin_4)*%
X85500000Y-59073114D02*
X87635614Y-56937500D01*
X87635614Y-56937500D02*
X88062500Y-56937500D01*
X85500000Y-59080000D02*
X85500000Y-59073114D01*
%TO.N,Net-(J2-Pin_3)*%
X85602500Y-56437500D02*
X88062500Y-56437500D01*
X85500000Y-56540000D02*
X85602500Y-56437500D01*
%TO.N,Net-(J2-Pin_2)*%
X87437500Y-55937500D02*
X88062500Y-55937500D01*
X85500000Y-54000000D02*
X87437500Y-55937500D01*
%TO.N,Net-(J2-Pin_1)*%
X88062500Y-54128186D02*
X88062500Y-55437500D01*
X85500000Y-51565686D02*
X88062500Y-54128186D01*
X85500000Y-51460000D02*
X85500000Y-51565686D01*
%TO.N,GND*%
X90500000Y-54000000D02*
X90500000Y-54500000D01*
X91537500Y-52962500D02*
X90500000Y-54000000D01*
X91537500Y-52962500D02*
X92500000Y-52962500D01*
X95412500Y-53050000D02*
X95500000Y-52962500D01*
X95500000Y-52962500D02*
X92500000Y-52962500D01*
X96025000Y-52962500D02*
X95500000Y-52962500D01*
X95412500Y-54500000D02*
X95412500Y-53050000D01*
%TO.N,Net-(U1-IREF)*%
X93587500Y-54500000D02*
X91000000Y-54500000D01*
%TO.N,GND*%
X97050000Y-51937500D02*
X96025000Y-52962500D01*
%TO.N,+3.3V*%
X95150000Y-51937500D02*
X94125000Y-50912500D01*
X94125000Y-50912500D02*
X92650000Y-50912500D01*
X92650000Y-50912500D02*
X91625000Y-51937500D01*
%TO.N,GND*%
X93525000Y-51937500D02*
X92500000Y-52962500D01*
X88125000Y-53625000D02*
X89000000Y-54500000D01*
X88125000Y-51937500D02*
X88125000Y-53625000D01*
%TO.N,Net-(U1-DVDD)*%
X89500000Y-52462500D02*
X89500000Y-54500000D01*
X90025000Y-51937500D02*
X89500000Y-52462500D01*
%TO.N,+3.3V*%
X91625000Y-51937500D02*
X90000000Y-53562500D01*
X90000000Y-53562500D02*
X90000000Y-54500000D01*
X91625000Y-51937500D02*
X91625000Y-52437500D01*
%TO.N,Net-(J1-In)*%
X101500000Y-52000000D02*
X102000000Y-52000000D01*
%TD*%
M02*
