%TF.GenerationSoftware,KiCad,Pcbnew,8.0.8*%
%TF.CreationDate,2025-03-31T21:12:05+02:00*%
%TF.ProjectId,nrf24small,6e726632-3473-46d6-916c-6c2e6b696361,rev?*%
%TF.SameCoordinates,Original*%
%TF.FileFunction,Legend,Top*%
%TF.FilePolarity,Positive*%
%FSLAX46Y46*%
G04 Gerber Fmt 4.6, Leading zero omitted, Abs format (unit mm)*
G04 Created by KiCad (PCBNEW 8.0.8) date 2025-03-31 21:12:05*
%MOMM*%
%LPD*%
G01*
G04 APERTURE LIST*
%ADD10C,0.120000*%
G04 APERTURE END LIST*
D10*
%TO.C,J1*%
X103540000Y-53485000D02*
X103540000Y-52375000D01*
X103540000Y-56275000D02*
X103540000Y-55165000D01*
X106790000Y-53485000D02*
X106790000Y-52375000D01*
X106790000Y-56275000D02*
X106790000Y-55165000D01*
%TO.C,Y1*%
X94200000Y-62700000D02*
X88450000Y-62700000D01*
X88450000Y-66300000D02*
X94200000Y-66300000D01*
X88450000Y-62700000D02*
X88450000Y-66300000D01*
%TO.C,U1*%
X87890000Y-55052500D02*
X87890000Y-54567500D01*
X87890000Y-58547500D02*
X87890000Y-57822500D01*
X88615000Y-54327500D02*
X88190000Y-54327500D01*
X88615000Y-58547500D02*
X87890000Y-58547500D01*
X91385000Y-54327500D02*
X92110000Y-54327500D01*
X91385000Y-58547500D02*
X92110000Y-58547500D01*
X92110000Y-54327500D02*
X92110000Y-55052500D01*
X92110000Y-58547500D02*
X92110000Y-57822500D01*
X87890000Y-54327500D02*
X87650000Y-53997500D01*
X88130000Y-53997500D01*
X87890000Y-54327500D01*
G36*
X87890000Y-54327500D02*
G01*
X87650000Y-53997500D01*
X88130000Y-53997500D01*
X87890000Y-54327500D01*
G37*
%TO.C,J2*%
X84170000Y-50130000D02*
X85500000Y-50130000D01*
X84170000Y-51460000D02*
X84170000Y-50130000D01*
X84170000Y-52730000D02*
X84170000Y-70570000D01*
X84170000Y-52730000D02*
X86830000Y-52730000D01*
X84170000Y-70570000D02*
X86830000Y-70570000D01*
X86830000Y-52730000D02*
X86830000Y-70570000D01*
%TO.C,C10*%
X102235000Y-52688748D02*
X102235000Y-53211252D01*
X100765000Y-52688748D02*
X100765000Y-53211252D01*
%TO.C,C9*%
X100185000Y-52688748D02*
X100185000Y-53211252D01*
X98715000Y-52688748D02*
X98715000Y-53211252D01*
%TO.C,C8*%
X94711252Y-58265000D02*
X94188748Y-58265000D01*
X94711252Y-59735000D02*
X94188748Y-59735000D01*
%TO.C,C7*%
X94711252Y-61735000D02*
X94188748Y-61735000D01*
X94711252Y-60265000D02*
X94188748Y-60265000D01*
%TO.C,C6*%
X90235000Y-68188748D02*
X90235000Y-68711252D01*
X88765000Y-68188748D02*
X88765000Y-68711252D01*
%TO.C,C5*%
X94235000Y-68188748D02*
X94235000Y-68711252D01*
X92765000Y-68188748D02*
X92765000Y-68711252D01*
%TO.C,C4*%
X89336252Y-51202500D02*
X88813748Y-51202500D01*
X89336252Y-52672500D02*
X88813748Y-52672500D01*
%TO.C,C3*%
X95838748Y-51202500D02*
X96361252Y-51202500D01*
X95838748Y-52672500D02*
X96361252Y-52672500D01*
%TO.C,C1*%
X92313748Y-51202500D02*
X92836252Y-51202500D01*
X92313748Y-52672500D02*
X92836252Y-52672500D01*
%TO.C,L2*%
X96440000Y-60462122D02*
X96440000Y-59662878D01*
X97560000Y-60462122D02*
X97560000Y-59662878D01*
%TO.C,L3*%
X98240000Y-59662878D02*
X98240000Y-60462122D01*
X99360000Y-59662878D02*
X99360000Y-60462122D01*
%TO.C,L4*%
X99360000Y-56162878D02*
X99360000Y-56962122D01*
X98240000Y-56162878D02*
X98240000Y-56962122D01*
%TO.C,R1*%
X94727064Y-55235000D02*
X94272936Y-55235000D01*
X94727064Y-53765000D02*
X94272936Y-53765000D01*
%TO.C,R2*%
X90314564Y-61735000D02*
X89860436Y-61735000D01*
X90314564Y-60265000D02*
X89860436Y-60265000D01*
%TD*%
M02*
