%TF.GenerationSoftware,KiCad,Pcbnew,8.0.8*%
%TF.CreationDate,2025-03-31T21:12:05+02:00*%
%TF.ProjectId,nrf24small,6e726632-3473-46d6-916c-6c2e6b696361,rev?*%
%TF.SameCoordinates,Original*%
%TF.FileFunction,Paste,Top*%
%TF.FilePolarity,Positive*%
%FSLAX46Y46*%
G04 Gerber Fmt 4.6, Leading zero omitted, Abs format (unit mm)*
G04 Created by KiCad (PCBNEW 8.0.8) date 2025-03-31 21:12:05*
%MOMM*%
%LPD*%
G01*
G04 APERTURE LIST*
G04 Aperture macros list*
%AMRoundRect*
0 Rectangle with rounded corners*
0 $1 Rounding radius*
0 $2 $3 $4 $5 $6 $7 $8 $9 X,Y pos of 4 corners*
0 Add a 4 corners polygon primitive as box body*
4,1,4,$2,$3,$4,$5,$6,$7,$8,$9,$2,$3,0*
0 Add four circle primitives for the rounded corners*
1,1,$1+$1,$2,$3*
1,1,$1+$1,$4,$5*
1,1,$1+$1,$6,$7*
1,1,$1+$1,$8,$9*
0 Add four rect primitives between the rounded corners*
20,1,$1+$1,$2,$3,$4,$5,0*
20,1,$1+$1,$4,$5,$6,$7,0*
20,1,$1+$1,$6,$7,$8,$9,0*
20,1,$1+$1,$8,$9,$2,$3,0*%
G04 Aperture macros list end*
%ADD10R,2.000000X2.400000*%
%ADD11RoundRect,0.250000X-0.255000X-0.255000X0.255000X-0.255000X0.255000X0.255000X-0.255000X0.255000X0*%
%ADD12RoundRect,0.062500X-0.350000X-0.062500X0.350000X-0.062500X0.350000X0.062500X-0.350000X0.062500X0*%
%ADD13RoundRect,0.062500X-0.062500X-0.350000X0.062500X-0.350000X0.062500X0.350000X-0.062500X0.350000X0*%
%ADD14RoundRect,0.250000X-0.475000X0.250000X-0.475000X-0.250000X0.475000X-0.250000X0.475000X0.250000X0*%
%ADD15RoundRect,0.250000X0.250000X0.475000X-0.250000X0.475000X-0.250000X-0.475000X0.250000X-0.475000X0*%
%ADD16RoundRect,0.250000X-0.250000X-0.475000X0.250000X-0.475000X0.250000X0.475000X-0.250000X0.475000X0*%
%ADD17RoundRect,0.218750X0.381250X-0.218750X0.381250X0.218750X-0.381250X0.218750X-0.381250X-0.218750X0*%
%ADD18RoundRect,0.218750X-0.381250X0.218750X-0.381250X-0.218750X0.381250X-0.218750X0.381250X0.218750X0*%
%ADD19RoundRect,0.250000X0.262500X0.450000X-0.262500X0.450000X-0.262500X-0.450000X0.262500X-0.450000X0*%
G04 APERTURE END LIST*
D10*
%TO.C,Y1*%
X93350000Y-64500000D03*
X89650000Y-64500000D03*
%TD*%
D11*
%TO.C,U1*%
X89375000Y-55812500D03*
X89375000Y-57062500D03*
X90625000Y-55812500D03*
X90625000Y-57062500D03*
D12*
X88062500Y-55437500D03*
X88062500Y-55937500D03*
X88062500Y-56437500D03*
X88062500Y-56937500D03*
X88062500Y-57437500D03*
D13*
X89000000Y-58375000D03*
X89500000Y-58375000D03*
X90000000Y-58375000D03*
X90500000Y-58375000D03*
X91000000Y-58375000D03*
D12*
X91937500Y-57437500D03*
X91937500Y-56937500D03*
X91937500Y-56437500D03*
X91937500Y-55937500D03*
X91937500Y-55437500D03*
D13*
X91000000Y-54500000D03*
X90500000Y-54500000D03*
X90000000Y-54500000D03*
X89500000Y-54500000D03*
X89000000Y-54500000D03*
%TD*%
D14*
%TO.C,C10*%
X101500000Y-52000000D03*
X101500000Y-53900000D03*
%TD*%
%TO.C,C9*%
X99450000Y-52000000D03*
X99450000Y-53900000D03*
%TD*%
D15*
%TO.C,C8*%
X93500000Y-59000000D03*
X95400000Y-59000000D03*
%TD*%
%TO.C,C7*%
X95400000Y-61000000D03*
X93500000Y-61000000D03*
%TD*%
D14*
%TO.C,C6*%
X89500000Y-67500000D03*
X89500000Y-69400000D03*
%TD*%
%TO.C,C5*%
X93500000Y-67500000D03*
X93500000Y-69400000D03*
%TD*%
D15*
%TO.C,C4*%
X88125000Y-51937500D03*
X90025000Y-51937500D03*
%TD*%
D16*
%TO.C,C3*%
X95150000Y-51937500D03*
X97050000Y-51937500D03*
%TD*%
%TO.C,C1*%
X91625000Y-51937500D03*
X93525000Y-51937500D03*
%TD*%
D17*
%TO.C,L2*%
X97000000Y-61125000D03*
X97000000Y-59000000D03*
%TD*%
D18*
%TO.C,L3*%
X98800000Y-61125000D03*
X98800000Y-59000000D03*
%TD*%
%TO.C,L4*%
X98800000Y-55500000D03*
X98800000Y-57625000D03*
%TD*%
D19*
%TO.C,R1*%
X95412500Y-54500000D03*
X93587500Y-54500000D03*
%TD*%
%TO.C,R2*%
X91000000Y-61000000D03*
X89175000Y-61000000D03*
%TD*%
M02*
